<?xml version="1.0" standalone="no"?>
<!DOCTYPE svg PUBLIC "-//W3C//DTD SVG 20010904//EN"
 "http://www.w3.org/TR/2001/REC-SVG-20010904/DTD/svg10.dtd">
<svg version="1.0" xmlns="http://www.w3.org/2000/svg"
 width="16.000000pt" height="16.000000pt" viewBox="0 0 16.000000 16.000000"
 preserveAspectRatio="xMidYMid meet">
<metadata>
Created by potrace 1.11, written by Peter Selinger 2001-2013
</metadata>
<g transform="translate(0.000000,16.000000) scale(0.004638,-0.004638)"
fill="#000000" stroke="none">
<path d="M1748 3375 c-2 -3 -49 -7 -104 -10 -127 -7 -166 -11 -191 -19 -12 -4
-34 -8 -49 -10 -57 -8 -221 -60 -309 -98 -196 -86 -343 -186 -495 -338 -120
-119 -123 -123 -180 -205 -19 -27 -38 -52 -41 -55 -3 -3 -21 -32 -40 -65 -105
-184 -164 -344 -204 -555 -20 -103 -26 -327 -12 -454 52 -475 326 -920 727
-1179 105 -67 226 -130 275 -143 6 -1 30 -11 55 -22 25 -12 56 -23 70 -26 14
-3 72 -17 130 -31 131 -31 201 -39 360 -39 119 0 200 6 265 20 17 3 39 7 50 9
70 13 100 20 194 52 173 57 332 142 481 256 70 54 224 205 281 277 102 127
213 331 259 475 12 39 25 77 28 85 7 21 7 18 21 82 7 32 14 70 16 85 2 16 5
28 6 28 4 0 19 202 21 270 0 52 -15 209 -27 265 -3 14 -8 41 -12 60 -9 45 -7
38 -22 90 -71 258 -230 531 -412 709 -62 60 -139 131 -144 131 -2 0 -36 24
-75 54 -156 117 -407 226 -605 262 -16 3 -48 9 -70 13 -22 5 -47 9 -55 9 -71
3 -172 12 -179 16 -5 3 -10 3 -13 1z m710 -950 c91 -72 120 -100 117 -115 -2
-10 -31 -54 -65 -97 -34 -43 -73 -94 -88 -113 -15 -19 -48 -61 -74 -95 -58
-73 -72 -91 -101 -129 -23 -31 -133 -171 -170 -218 -12 -15 -31 -39 -42 -54
-11 -15 -40 -53 -65 -84 -25 -31 -56 -72 -70 -90 -146 -193 -359 -456 -371
-458 -19 -3 -24 1 -259 228 -107 103 -234 225 -282 271 -48 46 -88 92 -90 101
-4 22 199 238 224 238 10 0 56 -36 101 -79 45 -44 122 -118 170 -165 83 -79
108 -93 120 -63 5 12 459 600 557 721 14 17 46 58 70 91 25 33 52 69 62 80 9
11 35 44 57 73 24 29 50 52 60 52 10 0 73 -43 139 -95z"/>
</g>
</svg>
