<?xml version="1.0" standalone="no"?>
<!DOCTYPE svg PUBLIC "-//W3C//DTD SVG 20010904//EN"
 "http://www.w3.org/TR/2001/REC-SVG-20010904/DTD/svg10.dtd">
<svg version="1.0" xmlns="http://www.w3.org/2000/svg"
 width="16.000000pt" height="16.000000pt" viewBox="0 0 16.000000 16.000000"
 preserveAspectRatio="xMidYMid meet">
<metadata>
Created by potrace 1.11, written by Peter Selinger 2001-2013
</metadata>
<g transform="translate(0.000000,16.000000) scale(0.003200,-0.003200)"
fill="#000000" stroke="none">
<path d="M2549 4126 c-2 -2 -56 -7 -119 -10 -63 -3 -131 -8 -150 -11 -19 -3
-48 -7 -65 -9 -16 -2 -52 -9 -80 -16 -27 -6 -57 -13 -65 -15 -8 -2 -51 -15
-95 -31 -231 -79 -438 -207 -609 -378 -165 -164 -217 -234 -321 -431 -28 -53
-82 -186 -101 -250 -51 -169 -68 -290 -68 -485 0 -163 14 -273 54 -425 17 -62
62 -189 71 -199 5 -6 9 -18 9 -27 0 -10 3 -19 8 -21 4 -1 22 -34 41 -73 112
-233 355 -494 597 -639 67 -41 222 -116 237 -116 7 0 17 -4 22 -9 6 -6 22 -12
37 -15 14 -2 35 -9 45 -14 32 -16 185 -51 288 -65 150 -21 402 -13 530 17 6 1
35 8 66 15 30 6 87 23 125 37 38 14 74 26 79 28 86 26 259 121 374 205 72 53
260 234 313 301 94 121 174 260 230 400 17 41 31 80 33 85 1 6 5 17 8 25 12
30 46 166 52 210 4 25 9 59 12 75 6 37 14 165 13 225 -1 102 -23 301 -37 323
-2 4 -7 24 -9 45 -8 61 -62 209 -119 327 -82 170 -189 320 -316 445 -70 68
-130 120 -139 120 -4 0 -13 7 -20 15 -20 25 -150 108 -237 153 -195 101 -429
167 -624 177 -25 1 -50 5 -56 8 -6 4 -12 5 -14 3z m577 -878 l19 -23 -25 20
c-14 11 -27 21 -29 22 -2 2 0 3 6 3 5 0 18 -10 29 -22z m49 -38 c10 -11 16
-20 13 -20 -3 0 -13 9 -23 20 -10 11 -16 20 -13 20 3 0 13 -9 23 -20z m-155
-3 c0 -2 -10 -12 -22 -23 l-23 -19 19 23 c18 21 26 27 26 19z m201 -34 c13
-16 12 -17 -3 -4 -17 13 -22 21 -14 21 2 0 10 -8 17 -17z m-241 -17 c0 -2 -8
-10 -17 -17 -16 -13 -17 -12 -4 4 13 16 21 21 21 13z m291 -23 c13 -16 12 -17
-3 -4 -17 13 -22 21 -14 21 2 0 10 -8 17 -17z m-321 -17 c0 -2 -8 -10 -17 -17
-16 -13 -17 -12 -4 4 13 16 21 21 21 13z m365 -16 c10 -11 16 -20 13 -20 -3 0
-13 9 -23 20 -10 11 -16 20 -13 20 3 0 13 -9 23 -20z m15 -64 c0 -2 -8 -10
-17 -17 -16 -13 -17 -12 -4 4 13 16 21 21 21 13z m-450 -10 c0 -2 -8 -10 -17
-17 -16 -13 -17 -12 -4 4 13 16 21 21 21 13z m-40 -50 c0 -2 -8 -10 -17 -17
-16 -13 -17 -12 -4 4 13 16 21 21 21 13z m420 -30 c0 -2 -8 -10 -17 -17 -16
-13 -17 -12 -4 4 13 16 21 21 21 13z m-450 -10 c0 -2 -8 -10 -17 -17 -16 -13
-17 -12 -4 4 13 16 21 21 21 13z m420 -29 c0 -2 -10 -12 -22 -23 l-23 -19 19
23 c18 21 26 27 26 19z m-460 -21 c0 -2 -8 -10 -17 -17 -16 -13 -17 -12 -4 4
13 16 21 21 21 13z m420 -30 c0 -2 -8 -10 -17 -17 -16 -13 -17 -12 -4 4 13 16
21 21 21 13z m-450 -10 c0 -2 -8 -10 -17 -17 -16 -13 -17 -12 -4 4 13 16 21
21 21 13z m410 -40 c0 -2 -8 -10 -17 -17 -16 -13 -17 -12 -4 4 13 16 21 21 21
13z m-450 -10 c0 -2 -8 -10 -17 -17 -16 -13 -17 -12 -4 4 13 16 21 21 21 13z
m420 -30 c0 -2 -8 -10 -17 -17 -16 -13 -17 -12 -4 4 13 16 21 21 21 13z m-450
-10 c0 -2 -8 -10 -17 -17 -16 -13 -17 -12 -4 4 13 16 21 21 21 13z m420 -29
c0 -2 -10 -12 -22 -23 l-23 -19 19 23 c18 21 26 27 26 19z m-460 -21 c0 -2 -8
-10 -17 -17 -16 -13 -17 -12 -4 4 13 16 21 21 21 13z m420 -30 c0 -2 -8 -10
-17 -17 -16 -13 -17 -12 -4 4 13 16 21 21 21 13z m-450 -10 c0 -2 -8 -10 -17
-17 -16 -13 -17 -12 -4 4 13 16 21 21 21 13z m410 -40 c0 -2 -8 -10 -17 -17
-16 -13 -17 -12 -4 4 13 16 21 21 21 13z m-450 -10 c0 -2 -8 -10 -17 -17 -16
-13 -17 -12 -4 4 13 16 21 21 21 13z m408 -46 c-7 -10 -14 -17 -17 -15 -4 4
18 35 25 35 2 0 -1 -9 -8 -20z m-438 6 c0 -2 -8 -10 -17 -17 -16 -13 -17 -12
-4 4 13 16 21 21 21 13z m-650 -9 c0 -1 -24 -25 -52 -52 l-53 -50 50 53 c46
48 55 57 55 49z m1060 -31 c0 -2 -8 -10 -17 -17 -16 -13 -17 -12 -4 4 13 16
21 21 21 13z m-935 -76 c33 -33 57 -60 54 -60 -2 0 -31 27 -64 60 -33 33 -57
60 -54 60 2 0 31 -27 64 -60z m441 12 c-17 -16 -18 -16 -5 5 7 12 15 20 18 17
3 -2 -3 -12 -13 -22z m464 24 c0 -2 -8 -10 -17 -17 -16 -13 -17 -12 -4 4 13
16 21 21 21 13z m-40 -50 c0 -2 -8 -10 -17 -17 -16 -13 -17 -12 -4 4 13 16 21
21 21 13z m-494 -64 c-17 -16 -18 -16 -5 5 7 12 15 20 18 17 3 -2 -3 -12 -13
-22z m-676 -5 c0 -2 -10 -12 -21 -23 -22 -19 -22 -19 -8 4 12 19 29 30 29 19z
m421 -24 c13 -16 12 -17 -3 -4 -10 7 -18 15 -18 17 0 8 8 3 21 -13z m689 14
c0 -2 -10 -12 -22 -23 l-23 -19 19 23 c18 21 26 27 26 19z m-1110 -92 c19 -19
32 -35 29 -35 -3 0 -20 16 -39 35 -19 19 -32 35 -29 35 3 0 20 -16 39 -35z
m620 32 c0 -2 -10 -12 -22 -23 l-23 -19 19 23 c18 21 26 27 26 19z m-57 -60
c9 10 17 15 17 12 0 -3 -8 -13 -18 -22 -17 -16 -20 -14 -53 21 l-34 37 35 -32
c34 -31 37 -32 53 -16z m461 8 c-4 -8 -11 -15 -16 -15 -6 0 -5 6 2 15 7 8 14
15 16 15 2 0 1 -7 -2 -15z m-963 -42 c13 -16 12 -17 -3 -4 -10 7 -18 15 -18
17 0 8 8 3 21 -13z m909 -26 c0 -2 -10 -12 -22 -23 l-23 -19 19 23 c18 21 26
27 26 19z m-40 -51 c0 -2 -8 -10 -17 -17 -16 -13 -17 -12 -4 4 13 16 21 21 21
13z m-690 -93 l75 -78 -77 75 c-72 69 -83 80 -75 80 1 0 36 -35 77 -77z m580
-47 c0 -2 -8 -10 -17 -17 -16 -13 -17 -12 -4 4 13 16 21 21 21 13z m-40 -50
c0 -2 -8 -10 -17 -17 -16 -13 -17 -12 -4 4 13 16 21 21 21 13z m-42 -56 c-7
-10 -14 -17 -17 -15 -4 4 18 35 25 35 2 0 -1 -9 -8 -20z m-238 -97 l65 -67
-61 54 c-52 46 -82 80 -71 80 1 0 32 -30 67 -67z m198 47 c-7 -10 -14 -17 -17
-15 -4 4 18 35 25 35 2 0 -1 -9 -8 -20z m-35 -45 c-3 -9 -8 -14 -10 -11 -3 3
-2 9 2 15 9 16 15 13 8 -4z m-43 -50 c-13 -14 -31 -25 -39 -24 -11 0 -10 3 4
9 12 4 27 15 34 24 7 9 16 16 19 16 3 0 -5 -11 -18 -25z"/>
</g>
</svg>
